<?xml version="1.0" standalone="no"?>
<!DOCTYPE svg PUBLIC "-//W3C//DTD SVG 20010904//EN"
 "http://www.w3.org/TR/2001/REC-SVG-20010904/DTD/svg10.dtd">
<svg version="1.0" xmlns="http://www.w3.org/2000/svg"
 width="512.000000pt" height="512.000000pt" viewBox="0 0 512.000000 512.000000"
 preserveAspectRatio="xMidYMid meet">
<metadata>
Created by potrace 1.14, written by Peter Selinger 2001-2017
</metadata>
<g transform="translate(0.000000,512.000000) scale(0.100000,-0.100000)"
fill="#000000" stroke="none">
<path d="M1890 4905 l-95 -45 -146 1 c-127 1 -152 -2 -193 -19 -25 -12 -46
-23 -46 -25 0 -3 66 -54 148 -115 81 -60 192 -147 247 -193 145 -121 428 -407
529 -534 241 -303 443 -657 591 -1035 32 -80 59 -148 61 -151 2 -3 32 8 66 25
35 17 108 53 164 79 115 55 196 115 238 176 29 41 29 43 13 71 -30 50 -21 58
36 35 33 -14 7 23 -29 40 -19 9 -34 20 -34 25 0 15 36 12 73 -6 33 -16 37 -16
93 11 132 62 381 35 438 -47 18 -25 22 -73 6 -63 -15 9 -47 -3 -54 -20 -8 -22
11 -66 45 -101 33 -34 41 -83 19 -123 -9 -18 -14 -21 -21 -10 -5 8 -2 20 7 30
35 38 5 82 -49 72 -38 -7 -44 -29 -18 -57 30 -31 26 -44 -15 -55 -57 -16 -84
2 -84 55 0 24 7 59 16 78 31 64 -10 136 -77 136 -21 0 -39 -3 -39 -8 0 -18 61
-60 80 -55 17 4 20 0 20 -25 0 -16 -7 -46 -15 -65 -21 -51 -19 -93 6 -118 19
-19 30 -21 90 -17 73 6 84 -1 44 -28 -20 -13 -38 -15 -87 -10 -33 4 -71 14
-84 23 -15 9 -24 11 -24 4 0 -12 31 -46 48 -52 11 -4 -70 -176 -132 -278 -31
-50 -47 -98 -83 -249 -43 -177 -49 -194 -119 -322 -40 -74 -95 -193 -123 -265
-44 -116 -52 -148 -72 -305 -27 -209 -26 -163 -11 -500 7 -151 14 -300 15
-330 l2 -55 59 132 c58 132 69 148 164 229 63 54 75 84 82 200 7 129 25 158
153 252 159 118 182 158 175 301 -4 68 -14 116 -53 231 -40 122 -48 157 -49
225 -1 64 4 89 21 125 32 64 110 148 222 239 197 160 322 311 479 581 75 129
84 162 49 184 -31 21 -54 13 -144 -52 -88 -62 -146 -87 -204 -86 -65 1 -107
31 -168 119 -29 41 -107 132 -174 202 -68 71 -133 142 -145 160 -34 48 -52
108 -62 211 -13 118 -29 155 -119 267 -115 141 -151 230 -151 369 0 134 -32
161 -130 111 -113 -57 -204 -44 -346 51 -53 35 -100 64 -104 64 -29 0 -72 -30
-131 -90 -58 -59 -74 -69 -113 -75 -76 -12 -132 10 -322 123 l-179 107 4 81
c5 133 -40 204 -131 204 -18 0 -75 -20 -128 -45z m576 -674 c116 -54 207 -174
221 -289 6 -51 5 -52 -20 -52 -38 0 -140 34 -190 63 -92 54 -169 168 -184 272
l-6 48 57 -6 c32 -3 86 -19 122 -36z m336 -124 c57 -43 98 -123 98 -191 0 -77
-8 -82 -65 -44 -66 44 -105 118 -105 197 0 83 7 87 72 38z m304 -79 c26 -48
29 -62 29 -143 0 -81 -3 -95 -29 -142 -16 -29 -38 -61 -49 -70 -19 -17 -20
-17 -36 6 -57 85 -68 209 -25 301 24 52 60 100 74 100 4 0 20 -24 36 -52z
m-221 -320 c82 -91 117 -209 98 -325 -7 -36 -16 -70 -21 -75 -13 -13 -86 36
-136 92 -21 24 -50 68 -65 99 -23 49 -26 69 -26 156 0 63 5 108 13 123 l13 23
41 -23 c22 -13 60 -44 83 -70z m368 -67 c77 -100 112 -247 88 -361 -13 -61
-64 -171 -91 -195 -16 -15 -20 -13 -52 24 -43 50 -81 129 -98 200 -15 64 -8
177 15 241 20 56 73 140 89 140 7 0 29 -22 49 -49z m-196 -507 c46 -28 113
-118 113 -151 0 -22 -89 -16 -145 11 -71 33 -135 110 -135 163 0 28 109 13
167 -23z m991 -91 c-3 -15 -6 -14 -17 6 -11 19 -11 25 0 32 15 9 23 -9 17 -38z"/>
<path d="M1061 4836 c-8 -10 -10 -37 -5 -88 9 -107 -10 -138 -143 -227 -81
-54 -105 -88 -137 -192 -38 -126 -54 -146 -171 -204 -92 -46 -102 -54 -123
-97 -31 -62 -36 -166 -25 -493 11 -279 18 -312 84 -370 45 -40 69 -74 69 -100
0 -11 5 -37 11 -57 10 -40 48 -68 89 -68 40 0 78 -29 109 -85 54 -96 113 -115
303 -95 129 13 287 46 428 90 152 47 175 42 210 -47 36 -90 44 -96 117 -88 38
4 69 2 82 -4 29 -16 36 -71 17 -127 -26 -77 -21 -121 17 -163 42 -47 245 -340
285 -411 17 -30 38 -82 47 -115 26 -103 19 -171 -34 -317 -37 -102 -27 -198
50 -474 22 -77 50 -204 64 -282 31 -174 43 -205 116 -295 75 -92 89 -122 89
-194 0 -70 23 -112 71 -135 80 -38 149 -33 286 22 81 33 197 97 239 133 l26
23 -37 250 c-44 303 -131 830 -147 893 -17 71 -99 224 -243 456 -38 61 -90
161 -116 222 -59 141 -83 181 -156 265 -62 71 -117 121 -258 238 -139 114
-419 401 -534 545 -57 72 -146 194 -199 273 -90 136 -96 142 -128 142 -26 0
-44 -10 -80 -44 -56 -54 -68 -59 -217 -90 -66 -14 -125 -30 -132 -36 -8 -6
-17 -25 -20 -41 -8 -36 -40 -59 -82 -59 -39 0 -66 25 -57 52 4 15 3 18 -6 13
-8 -5 -10 -20 -7 -41 7 -42 -6 -51 -33 -24 -28 28 -26 83 5 145 45 90 100 189
127 227 14 21 35 77 48 128 25 100 45 134 95 154 26 11 37 25 53 68 11 30 23
76 27 103 14 94 46 129 112 123 55 -5 61 -25 29 -91 -22 -45 -26 -62 -19 -83
5 -15 14 -29 20 -31 6 -2 34 17 63 42 29 25 57 44 63 42 20 -6 39 -79 33 -127
-5 -43 -5 -44 9 -20 8 14 14 37 15 53 0 15 3 27 8 28 57 5 75 16 154 88 31 28
61 51 67 51 28 0 -5 -144 -38 -164 -48 -30 74 -151 264 -261 15 -9 15 -12 -5
-38 -24 -31 -21 -33 19 -13 26 14 30 12 152 -73 146 -102 198 -135 205 -129 2
3 -35 61 -82 129 -231 330 -485 602 -908 977 -134 120 -152 132 -186 132 -21
0 -43 -6 -49 -14z m1366 -2538 c56 -26 110 -90 128 -152 20 -68 19 -76 -10
-76 -95 0 -215 125 -215 223 0 36 1 37 28 31 15 -3 46 -15 69 -26z m226 -363
c83 -169 48 -380 -84 -512 -29 -29 -56 -53 -59 -53 -4 0 -22 32 -39 70 -77
166 -41 367 87 500 27 28 53 50 58 50 5 0 22 -25 37 -55z m237 -281 c110 -119
132 -319 50 -452 l-20 -33 -27 21 c-101 79 -153 245 -119 379 16 63 50 131 66
131 4 0 26 -21 50 -46z m-192 -330 c21 -59 11 -168 -21 -230 -26 -52 -97 -124
-121 -124 -38 0 -51 149 -21 239 19 59 112 167 137 159 7 -3 19 -22 26 -44z
m173 -269 c23 -49 25 -142 4 -192 -15 -36 -15 -36 -37 -17 -75 64 -107 152
-88 240 17 75 27 81 68 42 19 -18 43 -51 53 -73z"/>
<path d="M1700 3944 c0 -19 43 -72 63 -78 64 -17 61 -1 -8 47 -30 21 -55 35
-55 31z"/>
<path d="M1052 3838 c-7 -7 -12 -16 -12 -20 0 -16 40 -8 60 12 l20 20 -28 0
c-15 0 -33 -5 -40 -12z"/>
<path d="M1808 3805 c-33 -18 -42 -45 -27 -79 12 -27 31 -32 94 -27 34 3 76
23 94 45 21 25 -14 32 -55 12 -47 -22 -78 -7 -72 35 5 33 3 34 -34 14z"/>
<path d="M1607 3736 c-26 -35 -47 -67 -47 -71 0 -4 29 -5 65 -3 60 5 115 27
115 47 0 16 -60 91 -73 91 -7 0 -34 -29 -60 -64z"/>
<path d="M1996 3708 c-19 -27 -19 -56 -2 -123 9 -34 10 -61 4 -89 -5 -22 -7
-50 -4 -61 6 -24 55 -55 87 -55 23 0 193 82 218 105 23 22 5 59 -41 85 -61 33
-215 137 -223 150 -10 16 -23 12 -39 -12z"/>
<path d="M1745 3639 c-6 -16 29 -267 39 -276 11 -12 114 -7 130 6 25 21 38 87
31 155 -12 96 -16 102 -77 110 -29 4 -68 9 -85 12 -23 4 -34 2 -38 -7z"/>
<path d="M1583 3590 c-13 -5 -23 -12 -23 -15 0 -4 30 -49 66 -102 57 -80 69
-92 77 -78 14 25 0 132 -21 169 -19 33 -57 43 -99 26z"/>
<path d="M2315 3403 c-54 -12 -125 -47 -130 -64 -7 -21 27 -87 65 -126 24 -27
62 -30 81 -7 21 26 66 44 107 44 21 0 41 3 45 6 9 9 -25 74 -39 74 -21 0 -46
32 -41 51 7 26 -29 35 -88 22z"/>
<path d="M1978 3321 c-127 -10 -126 -16 2 -150 106 -110 110 -114 129 -97 30
27 54 102 48 149 -4 31 -15 50 -41 74 -20 18 -41 32 -48 31 -7 -1 -48 -4 -90
-7z"/>
<path d="M1756 3312 c-6 -10 71 -106 89 -110 25 -6 24 15 -6 66 -23 40 -35 52
-54 52 -13 0 -26 -4 -29 -8z"/>
<path d="M2443 3168 c-6 -7 -20 -44 -31 -83 -20 -65 -20 -71 -5 -82 9 -7 28
-13 42 -14 14 0 59 -4 99 -8 39 -4 72 -5 72 -3 0 2 -18 41 -39 87 -29 63 -47
87 -69 99 -37 19 -56 20 -69 4z"/>
<path d="M1892 3141 c4 -11 128 -141 134 -141 28 0 -54 120 -92 136 -39 16
-47 17 -42 5z"/>
<path d="M2221 3131 c-26 -26 -66 -198 -50 -217 18 -22 140 -55 156 -42 26 21
5 243 -25 266 -23 18 -59 15 -81 -7z"/>
<path d="M3432 2973 c-17 -7 -44 -61 -37 -73 13 -21 61 -10 90 20 23 24 26 32
15 45 -12 15 -42 19 -68 8z"/>
<path d="M3682 2973 c-16 -6 -42 -57 -42 -83 0 -43 84 -8 95 40 10 45 -9 61
-53 43z"/>
<path d="M3554 2952 c-22 -14 -64 -85 -64 -108 0 -17 7 -25 27 -30 22 -6 32
-1 65 34 42 46 50 85 19 102 -23 12 -32 12 -47 2z"/>
<path d="M2420 2914 c-69 -58 -1 -102 161 -104 52 -1 97 -1 101 -1 4 1 -4 27
-17 59 -23 56 -24 57 -72 64 -102 14 -139 10 -173 -18z"/>
<path d="M3706 2817 c-39 -37 -45 -57 -22 -76 20 -17 98 53 94 83 -5 33 -32
30 -72 -7z"/>
<path d="M2220 2817 c0 -16 219 -200 240 -201 12 -1 15 13 15 79 l0 80 -65 8
c-36 4 -80 17 -98 27 -38 23 -92 27 -92 7z"/>
<path d="M3255 2822 c-24 -16 -53 -64 -48 -78 6 -16 65 -19 93 -4 50 27 44 90
-8 90 -15 0 -32 -4 -37 -8z"/>
<path d="M3605 2821 c-49 -21 -58 -71 -13 -71 35 0 70 28 66 53 -3 24 -22 30
-53 18z"/>
<path d="M3402 2813 c-15 -6 -52 -75 -52 -97 0 -14 36 -46 51 -46 4 0 21 12
38 26 35 29 38 51 16 94 -15 29 -26 34 -53 23z"/>
<path d="M3031 2771 c-12 -21 10 -48 29 -36 6 4 10 -6 10 -24 0 -24 4 -31 19
-31 10 0 22 7 25 16 10 27 7 54 -8 54 -7 0 -16 9 -19 20 -7 26 -43 26 -56 1z"/>
<path d="M3767 2752 c-21 -23 -22 -52 -3 -52 21 0 48 30 44 48 -4 23 -22 25
-41 4z"/>
<path d="M2560 2737 c-38 -19 -36 -55 6 -127 20 -34 48 -76 63 -93 l27 -30 66
22 66 22 -24 72 c-26 75 -51 105 -113 132 -41 18 -58 19 -91 2z"/>
<path d="M3470 2701 c-18 -36 -18 -41 -4 -55 8 -9 17 -16 19 -16 35 0 71 60
55 90 -18 33 -47 24 -70 -19z"/>
<path d="M3120 2686 c-16 -20 -9 -60 11 -64 25 -5 74 41 66 61 -8 21 -60 23
-77 3z"/>
<path d="M3574 2690 c-25 -10 -48 -61 -40 -88 10 -32 35 -34 62 -7 19 20 24
34 22 62 -3 40 -12 46 -44 33z"/>
<path d="M3243 2682 c-21 -14 -42 -75 -32 -94 12 -23 47 -23 79 -1 32 22 40
33 40 61 0 31 -57 53 -87 34z"/>
<path d="M3660 2660 c-25 -25 -23 -63 2 -68 10 -2 29 8 43 23 15 14 25 33 23
43 -5 25 -43 27 -68 2z"/>
<path d="M3390 2609 c-43 -9 -60 -32 -60 -81 0 -46 13 -49 74 -13 41 24 72 67
61 85 -8 13 -38 17 -75 9z"/>
<path d="M3116 2564 c-20 -19 -20 -28 0 -45 12 -10 20 -10 35 -1 11 7 19 8 19
2 0 -12 37 -13 44 -1 8 13 -21 34 -35 26 -8 -5 -9 -1 -4 14 5 18 2 21 -19 21
-13 0 -32 -7 -40 -16z"/>
<path d="M3248 2543 c-9 -10 -23 -32 -32 -50 -35 -69 31 -113 76 -52 17 22 18
33 11 70 -10 48 -30 60 -55 32z"/>
<path d="M2520 2547 c0 -2 14 -16 31 -33 31 -29 31 -29 24 -4 -4 14 -13 28
-19 32 -11 8 -36 11 -36 5z"/>
<path d="M3456 2489 c-39 -42 -43 -65 -15 -82 38 -24 116 75 88 109 -18 22
-34 16 -73 -27z"/>
<path d="M3566 2499 c-25 -20 -36 -59 -17 -59 12 0 71 50 71 60 0 18 -30 18
-54 -1z"/>
<path d="M2760 2470 c-14 -5 -44 -14 -66 -20 -52 -13 -61 -39 -31 -87 22 -34
23 -34 77 -28 73 8 100 15 100 27 0 28 -33 118 -43 117 -7 0 -23 -4 -37 -9z"/>
<path d="M3595 2456 c-28 -29 -42 -73 -27 -88 16 -16 38 -3 68 41 22 34 24 44
14 56 -17 21 -27 19 -55 -9z"/>
<path d="M3310 2390 c-24 -24 -27 -80 -5 -80 30 0 95 40 95 58 0 43 -56 56
-90 22z"/>
<path d="M3165 2355 c-28 -27 -30 -37 -15 -66 22 -40 110 -12 110 36 0 29 -24
55 -51 55 -11 0 -31 -11 -44 -25z"/>
<path d="M3485 2340 c-11 -18 13 -36 31 -25 9 6 16 15 17 20 3 14 -40 18 -48
5z"/>
<path d="M3383 2324 c-40 -29 -24 -84 23 -84 28 0 66 46 62 74 -4 27 -54 32
-85 10z"/>
<path d="M3546 2299 c-22 -26 -26 -40 -24 -78 4 -67 29 -67 63 -1 45 88 16
145 -39 79z"/>
<path d="M2826 2288 c-10 -6 -41 -13 -67 -17 l-49 -6 35 -79 c19 -44 38 -83
42 -87 12 -11 123 12 123 26 0 24 -47 169 -56 172 -5 1 -17 -3 -28 -9z"/>
<path d="M3240 2261 c-91 -28 -95 -81 -7 -81 45 0 59 12 60 51 2 36 -10 43
-53 30z"/>
<path d="M3400 2195 c-17 -21 -1 -38 31 -33 16 2 24 10 24 23 0 25 -37 32 -55
10z"/>
<path d="M3372 2118 c-22 -29 -53 -101 -48 -114 12 -30 125 -11 142 25 7 12
17 28 23 34 17 17 13 45 -8 57 -27 14 -96 13 -109 -2z"/>
</g>
</svg>
